<svg width="20" height="20" viewBox="0 0 20 20" fill="none" xmlns="http://www.w3.org/2000/svg">
<path d="M6.66683 4.99998C6.66683 5.44201 6.49124 5.86593 6.17867 6.17849C5.86611 6.49105 5.44219 6.66665 5.00016 6.66665C4.55814 6.66665 4.13421 6.49105 3.82165 6.17849C3.50909 5.86593 3.3335 5.44201 3.3335 4.99998C3.3335 4.55795 3.50909 4.13403 3.82165 3.82147C4.13421 3.50891 4.55814 3.33331 5.00016 3.33331C5.44219 3.33331 5.86611 3.50891 6.17867 3.82147C6.49124 4.13403 6.66683 4.55795 6.66683 4.99998V4.99998Z" fill="black"/>
<path d="M6.66683 9.99998C6.66683 10.442 6.49124 10.8659 6.17867 11.1785C5.86611 11.4911 5.44219 11.6666 5.00016 11.6666C4.55814 11.6666 4.13421 11.4911 3.82165 11.1785C3.50909 10.8659 3.3335 10.442 3.3335 9.99998C3.3335 9.55795 3.50909 9.13403 3.82165 8.82147C4.13421 8.50891 4.55814 8.33331 5.00016 8.33331C5.44219 8.33331 5.86611 8.50891 6.17867 8.82147C6.49124 9.13403 6.66683 9.55795 6.66683 9.99998Z" fill="black"/>
<path d="M5.00016 16.6666C5.44219 16.6666 5.86611 16.4911 6.17867 16.1785C6.49124 15.8659 6.66683 15.442 6.66683 15C6.66683 14.558 6.49124 14.134 6.17867 13.8215C5.86611 13.5089 5.44219 13.3333 5.00016 13.3333C4.55814 13.3333 4.13421 13.5089 3.82165 13.8215C3.50909 14.134 3.3335 14.558 3.3335 15C3.3335 15.442 3.50909 15.8659 3.82165 16.1785C4.13421 16.4911 4.55814 16.6666 5.00016 16.6666V16.6666Z" fill="black"/>
<path d="M11.6668 4.99998C11.6668 5.44201 11.4912 5.86593 11.1787 6.17849C10.8661 6.49105 10.4422 6.66665 10.0002 6.66665C9.55814 6.66665 9.13421 6.49105 8.82165 6.17849C8.50909 5.86593 8.3335 5.44201 8.3335 4.99998C8.3335 4.55795 8.50909 4.13403 8.82165 3.82147C9.13421 3.50891 9.55814 3.33331 10.0002 3.33331C10.4422 3.33331 10.8661 3.50891 11.1787 3.82147C11.4912 4.13403 11.6668 4.55795 11.6668 4.99998V4.99998Z" fill="black"/>
<path d="M10.0002 11.6666C10.4422 11.6666 10.8661 11.4911 11.1787 11.1785C11.4912 10.8659 11.6668 10.442 11.6668 9.99998C11.6668 9.55795 11.4912 9.13403 11.1787 8.82147C10.8661 8.50891 10.4422 8.33331 10.0002 8.33331C9.55814 8.33331 9.13421 8.50891 8.82165 8.82147C8.50909 9.13403 8.3335 9.55795 8.3335 9.99998C8.3335 10.442 8.50909 10.8659 8.82165 11.1785C9.13421 11.4911 9.55814 11.6666 10.0002 11.6666Z" fill="black"/>
<path d="M11.6668 15C11.6668 15.442 11.4912 15.8659 11.1787 16.1785C10.8661 16.4911 10.4422 16.6666 10.0002 16.6666C9.55814 16.6666 9.13421 16.4911 8.82165 16.1785C8.50909 15.8659 8.3335 15.442 8.3335 15C8.3335 14.558 8.50909 14.134 8.82165 13.8215C9.13421 13.5089 9.55814 13.3333 10.0002 13.3333C10.4422 13.3333 10.8661 13.5089 11.1787 13.8215C11.4912 14.134 11.6668 14.558 11.6668 15V15Z" fill="black"/>
<path d="M15.0002 6.66665C15.4422 6.66665 15.8661 6.49105 16.1787 6.17849C16.4912 5.86593 16.6668 5.44201 16.6668 4.99998C16.6668 4.55795 16.4912 4.13403 16.1787 3.82147C15.8661 3.50891 15.4422 3.33331 15.0002 3.33331C14.5581 3.33331 14.1342 3.50891 13.8217 3.82147C13.5091 4.13403 13.3335 4.55795 13.3335 4.99998C13.3335 5.44201 13.5091 5.86593 13.8217 6.17849C14.1342 6.49105 14.5581 6.66665 15.0002 6.66665V6.66665Z" fill="black"/>
<path d="M16.6668 9.99998C16.6668 10.442 16.4912 10.8659 16.1787 11.1785C15.8661 11.4911 15.4422 11.6666 15.0002 11.6666C14.5581 11.6666 14.1342 11.4911 13.8217 11.1785C13.5091 10.8659 13.3335 10.442 13.3335 9.99998C13.3335 9.55795 13.5091 9.13403 13.8217 8.82147C14.1342 8.50891 14.5581 8.33331 15.0002 8.33331C15.4422 8.33331 15.8661 8.50891 16.1787 8.82147C16.4912 9.13403 16.6668 9.55795 16.6668 9.99998Z" fill="black"/>
<path d="M15.0002 16.6666C15.4422 16.6666 15.8661 16.4911 16.1787 16.1785C16.4912 15.8659 16.6668 15.442 16.6668 15C16.6668 14.558 16.4912 14.134 16.1787 13.8215C15.8661 13.5089 15.4422 13.3333 15.0002 13.3333C14.5581 13.3333 14.1342 13.5089 13.8217 13.8215C13.5091 14.134 13.3335 14.558 13.3335 15C13.3335 15.442 13.5091 15.8659 13.8217 16.1785C14.1342 16.4911 14.5581 16.6666 15.0002 16.6666V16.6666Z" fill="black"/>
</svg>
