<svg xmlns="http://www.w3.org/2000/svg" width="20" height="20" fill="none" viewBox="0 0 20 20"><path fill="#342E2D" d="M11.3261 3.72709C11.6067 3.72709 11.8744 3.845 12.0638 4.05204L12.9942 5.06881C13.1836 5.27585 13.4513 5.39376 13.7319 5.39376H15.6665C16.2188 5.39376 16.6665 5.84147 16.6665 6.39376V14.3938C16.6665 14.946 16.2188 15.3938 15.6665 15.3938H4.33317C3.78088 15.3938 3.33317 14.946 3.33317 14.3938V6.39376C3.33317 5.84147 3.78089 5.39376 4.33317 5.39376H6.26773C6.54835 5.39376 6.81606 5.27585 7.00549 5.06881L7.93585 4.05204C8.12528 3.845 8.39299 3.72709 8.67361 3.72709H11.3261ZM12.7972 2.38537C12.6077 2.17834 12.34 2.06042 12.0594 2.06042H7.94028C7.65966 2.06042 7.39195 2.17834 7.20251 2.38537L5.97484 3.72709H3.33317C2.4165 3.72709 1.6665 4.47709 1.6665 5.39376V15.3938C1.6665 16.3104 2.4165 17.0604 3.33317 17.0604H16.6665C17.5832 17.0604 18.3332 16.3104 18.3332 15.3938V5.39376C18.3332 4.47709 17.5832 3.72709 16.6665 3.72709H14.0248L12.7972 2.38537ZM9.99984 7.89376C11.3748 7.89376 12.4998 9.01876 12.4998 10.3938C12.4998 11.7688 11.3748 12.8938 9.99984 12.8938C8.62484 12.8938 7.49984 11.7688 7.49984 10.3938C7.49984 9.01876 8.62484 7.89376 9.99984 7.89376ZM9.99984 6.22709C7.69984 6.22709 5.83317 8.09376 5.83317 10.3938C5.83317 12.6938 7.69984 14.5604 9.99984 14.5604C12.2998 14.5604 14.1665 12.6938 14.1665 10.3938C14.1665 8.09376 12.2998 6.22709 9.99984 6.22709Z"/></svg>