<svg xmlns="http://www.w3.org/2000/svg" width="20" height="21" fill="none" viewBox="0 0 20 21"><path fill="#342E2D" d="M12.7574 2.98148C12.7574 2.59192 12.4416 2.27612 12.052 2.27612H4.29305C3.51715 2.27612 2.88232 2.91095 2.88232 3.68685V12.8565C2.88232 13.2461 3.19813 13.5619 3.58769 13.5619C3.97725 13.5619 4.29305 13.2461 4.29305 12.8565V4.68685C4.29305 4.13456 4.74076 3.68685 5.29305 3.68685H12.052C12.4416 3.68685 12.7574 3.37104 12.7574 2.98148ZM14.8735 5.09757H7.11449C6.3386 5.09757 5.70377 5.73239 5.70377 6.50829V16.3834C5.70377 17.1592 6.3386 17.7941 7.11449 17.7941H14.8735C15.6494 17.7941 16.2842 17.1592 16.2842 16.3834V6.50829C16.2842 5.73239 15.6494 5.09757 14.8735 5.09757ZM14.8735 15.3834C14.8735 15.9356 14.4258 16.3834 13.8735 16.3834H8.11449C7.56221 16.3834 7.11449 15.9356 7.11449 15.3834V7.50829C7.11449 6.95601 7.56221 6.50829 8.11449 6.50829H13.8735C14.4258 6.50829 14.8735 6.95601 14.8735 7.50829V15.3834Z"/></svg>