<svg xmlns="http://www.w3.org/2000/svg" width="20" height="20" fill="none" viewBox="0 0 20 20"><path fill="#342E2D" fill-rule="evenodd" d="M9.175 2.54171C5.425 2.95005 2.5 6.13338 2.5 10C2.5 11.9892 3.29018 13.8968 4.6967 15.3033C6.10322 16.7099 8.01088 17.5 10 17.5C13.8583 17.5 17.0417 14.5834 17.4583 10.8334C17.5333 10.175 16.8083 9.65005 16.175 10.0417C15.4947 10.4759 14.7102 10.7193 13.9037 10.7464C13.0971 10.7735 12.298 10.5833 11.5901 10.1957C10.8823 9.80813 10.2916 9.23741 9.87988 8.54327C9.46819 7.84912 9.25064 7.05709 9.25 6.25005C9.25 5.36671 9.50833 4.53338 9.95 3.84171C10.325 3.28338 9.91667 2.48338 9.175 2.54171ZM15.4122 12.1882C14.9408 12.3199 14.4532 12.3956 13.9596 12.4121C12.8545 12.4493 11.7596 12.1887 10.7897 11.6576C9.8198 11.1265 9.01046 10.3446 8.44638 9.39346C7.88229 8.44238 7.58422 7.35716 7.58333 6.25138L7.58333 6.25005C7.58333 5.67666 7.66284 5.11797 7.81139 4.58733C5.67694 5.4524 4.16667 7.55006 4.16667 10C4.16667 11.5471 4.78125 13.0309 5.87521 14.1248C6.96917 15.2188 8.4529 15.8334 10 15.8334C12.4459 15.8334 14.5448 14.3251 15.4122 12.1882Z" clip-rule="evenodd"/></svg>