<svg width="20" height="20" viewBox="0 0 20 20" fill="none" xmlns="http://www.w3.org/2000/svg">
<path d="M3.33317 17.4998H11.3498C11.8307 17.5001 12.306 17.3962 12.7429 17.1952C13.1798 16.9942 13.5679 16.701 13.8807 16.3357L18.1323 11.3757C18.2214 11.272 18.2835 11.148 18.3134 11.0146C18.3432 10.8813 18.3397 10.7426 18.3034 10.6109C18.267 10.4792 18.1987 10.3584 18.1047 10.2593C18.0106 10.1601 17.8936 10.0856 17.764 10.0423L16.124 9.49568C15.7276 9.36684 15.3056 9.33769 14.8953 9.4108C14.485 9.48391 14.099 9.65703 13.7715 9.91485L11.1173 12.0373L10.6032 11.0082C10.3277 10.4534 9.90242 9.98686 9.37545 9.66137C8.84848 9.33588 8.24089 9.16445 7.6215 9.16651H3.33317C2.414 9.16651 1.6665 9.91401 1.6665 10.8332V15.8332C1.6665 16.7523 2.414 17.4998 3.33317 17.4998ZM3.33317 10.8332H7.6215C8.25734 10.8332 8.82817 11.1857 9.11234 11.754L9.48484 12.4998H5.83317V14.1665H10.8448C10.973 14.1648 11.0991 14.1334 11.2132 14.0748L11.2157 14.074L11.219 14.0723H11.2215L11.2232 14.0715H11.2265L11.2273 14.0707C11.2348 14.0732 11.2298 14.0698 11.2298 14.0698C11.2382 14.0698 11.2315 14.069 11.2315 14.069H11.2323L11.234 14.0682L11.2365 14.0673L11.2382 14.0665L11.2398 14.0657L11.2423 14.0648L11.244 14.064C11.2465 14.064 11.2448 14.0632 11.2457 14.0632L11.2482 14.0615L11.2498 14.0607L11.2515 14.0598L11.254 14.059L11.2557 14.0582H11.2565L11.2582 14.0573H11.259L11.2607 14.0565L11.2623 14.0557C11.2698 14.0548 11.2648 14.0548 11.2648 14.0548L11.2665 14.054C11.2986 14.0346 11.3293 14.0129 11.3582 13.989L14.8132 11.2248C15.0315 11.0515 15.3323 10.9973 15.5965 11.0857L16.0607 11.2407L12.6165 15.2598C12.4581 15.4397 12.2632 15.5839 12.0448 15.6827C11.8264 15.7816 11.5895 15.8329 11.3498 15.8332H3.33317V10.8332ZM13.3332 1.66651H13.319C13.1832 1.66818 12.4807 1.69901 11.6665 2.25401C10.874 1.71401 10.1882 1.67068 10.0265 1.66735L10.0015 1.66651H9.99817C9.33067 1.66651 8.70234 1.92735 8.23234 2.39818C7.76067 2.87068 7.49984 3.49818 7.49984 4.16651C7.49984 4.83485 7.76067 5.46235 8.21734 5.91985L11.0623 8.90818C11.1406 8.98944 11.2345 9.05406 11.3383 9.09817C11.4422 9.14228 11.5539 9.16498 11.6667 9.1649C11.7795 9.16482 11.8912 9.14197 11.9949 9.09772C12.0987 9.05346 12.1925 8.98871 12.2707 8.90735L15.1007 5.93401C15.5732 5.46235 15.8332 4.83485 15.8332 4.16651C15.8332 3.49818 15.5723 2.87068 15.1015 2.39901C14.8701 2.16613 14.5948 1.98148 14.2916 1.85574C13.9883 1.73 13.6631 1.66569 13.3348 1.66651H13.3332ZM14.1665 4.16651C14.1665 4.38901 14.0798 4.59818 13.9073 4.77068L11.6665 7.12485L9.41067 4.75568C9.25317 4.59818 9.1665 4.38901 9.1665 4.16651C9.1665 3.94401 9.25317 3.73484 9.4115 3.57651C9.5622 3.42323 9.7674 3.33575 9.98234 3.33318C10.0032 3.33401 10.4007 3.35985 10.8715 3.73735C10.939 3.79151 11.0073 3.85318 11.0773 3.92234L11.6665 4.51151L12.2557 3.92234C12.3257 3.85318 12.394 3.79151 12.4615 3.73735C12.9023 3.38318 13.2748 3.33901 13.3382 3.33401C13.4468 3.33399 13.5543 3.35548 13.6546 3.39725C13.7549 3.43901 13.8459 3.50022 13.9223 3.57735C14.0798 3.73485 14.1665 3.94401 14.1665 4.16651Z" fill="#342E2D"/>
</svg>
