<svg width="20" height="21" viewBox="0 0 20 21" fill="none" xmlns="http://www.w3.org/2000/svg">
<path d="M17.7598 10.0016L15.2676 8.03478C15.2467 8.01838 15.2217 8.00818 15.1953 8.00536C15.1689 8.00254 15.1423 8.0072 15.1184 8.01882C15.0946 8.03044 15.0745 8.04854 15.0604 8.07106C15.0464 8.09357 15.039 8.11958 15.0391 8.14611V9.40978H10.7031V5.07384H11.9687C12.0859 5.07384 12.1523 4.93713 12.0801 4.84533L10.1113 2.35314C10.0983 2.33628 10.0816 2.32262 10.0624 2.31323C10.0433 2.30383 10.0223 2.29895 10.001 2.29895C9.97966 2.29895 9.95863 2.30383 9.9395 2.31323C9.92037 2.32262 9.90365 2.33628 9.89062 2.35314L7.92187 4.84533C7.90546 4.86618 7.89527 4.89123 7.89245 4.91761C7.88962 4.94399 7.89429 4.97063 7.90591 4.99448C7.91753 5.01833 7.93563 5.03842 7.95814 5.05246C7.98065 5.0665 8.00666 5.07391 8.03319 5.07384H9.29687V9.40978H4.96093V8.14416C4.96093 8.02697 4.82421 7.96056 4.73241 8.03283L2.24023 10.0016C2.22336 10.0146 2.20971 10.0313 2.20031 10.0505C2.19092 10.0696 2.18604 10.0906 2.18604 10.1119C2.18604 10.1332 2.19092 10.1543 2.20031 10.1734C2.20971 10.1925 2.22336 10.2093 2.24023 10.2223L4.73046 12.191C4.82226 12.2633 4.95898 12.1988 4.95898 12.0797V10.816H9.29491V15.152H8.02929C7.9121 15.152 7.84569 15.2887 7.91796 15.3805L9.88671 17.8707C9.94335 17.943 10.0527 17.943 10.1074 17.8707L12.0762 15.3805C12.1484 15.2887 12.084 15.152 11.9648 15.152H10.7031V10.816H15.0391V12.0817C15.0391 12.1988 15.1758 12.2653 15.2676 12.193L17.7578 10.2242C17.7746 10.211 17.7882 10.1942 17.7977 10.175C17.8071 10.1558 17.8121 10.1348 17.8123 10.1134C17.8125 10.092 17.8078 10.0708 17.7988 10.0515C17.7897 10.0321 17.7763 10.0151 17.7598 10.0016Z" fill="#342E2D"/>
</svg>
