<svg xmlns="http://www.w3.org/2000/svg" width="20" height="20" fill="none" viewBox="0 0 20 20"><path fill="#342E2D" d="M4.36447 11.3763C4.36447 10.9159 4.73782 10.5426 5.19827 10.5428C5.65848 10.543 6.03147 10.9161 6.03147 11.3763L6.03147 12.6974L8.04319 10.6857C8.36863 10.3603 8.89627 10.3603 9.2217 10.6857C9.54714 11.0111 9.54714 11.5388 9.2217 11.8642L7.20998 13.8759L8.5311 13.8759C8.99131 13.8759 9.36444 14.2489 9.3646 14.7091C9.36476 15.1696 8.99154 15.5429 8.5311 15.5429L5.36447 15.5429C4.81218 15.5429 4.36447 15.0952 4.36447 14.5429L4.36447 11.3763Z"/><path fill="#342E2D" d="M15.6353 8.62429C15.6353 9.08452 15.2622 9.45761 14.802 9.45761C14.3418 9.45761 13.9688 9.08466 13.9686 8.62452L13.9683 7.3027L11.9566 9.31442C11.6311 9.63986 11.1035 9.63986 10.778 9.31442C10.4526 8.98898 10.4526 8.46135 10.778 8.13591L12.7898 6.12419L11.4687 6.12419C11.0084 6.12419 10.6353 5.7512 10.6351 5.29098C10.635 4.83054 11.0082 4.45719 11.4687 4.45719L14.6353 4.45719C15.1876 4.45719 15.6353 4.9049 15.6353 5.45719V8.62429Z"/></svg>