<svg xmlns="http://www.w3.org/2000/svg" width="21" height="21" fill="none" viewBox="0 0 21 21"><path fill="#342E2D" d="M11.0007 7.16658C11.0007 6.70635 10.6276 6.33325 10.1673 6.33325C9.70708 6.33325 9.33398 6.70635 9.33398 7.16658V13.8333C9.33398 14.2935 9.70708 14.6666 10.1673 14.6666C10.6276 14.6666 11.0007 14.2935 11.0007 13.8333V7.16658Z"/><path fill="#342E2D" d="M4.5776 7.55369C4.90318 7.22811 5.43109 7.2282 5.75656 7.5539C6.08186 7.87944 6.08177 8.40702 5.75635 8.73244L4.82218 9.66661H7.66718C8.12742 9.66661 8.50051 10.0397 8.50051 10.4999C8.50051 10.9602 8.12742 11.3333 7.66718 11.3333H4.82218L5.75635 12.2674C6.08177 12.5929 6.08186 13.1205 5.75656 13.446C5.43109 13.7717 4.90318 13.7718 4.5776 13.4462L2.33845 11.2071C1.94793 10.8165 1.94793 10.1834 2.33845 9.79284L4.5776 7.55369Z"/><path fill="#342E2D" d="M15.7566 13.4465C15.4311 13.772 14.9035 13.772 14.5781 13.4465C14.2527 13.1212 14.2526 12.5937 14.5779 12.2682L15.5123 11.3333H12.6673C12.2071 11.3333 11.834 10.9602 11.834 10.4999C11.834 10.0397 12.2071 9.66661 12.6673 9.66661H15.5123L14.5782 8.73244C14.2527 8.40702 14.2526 7.87944 14.5779 7.5539C14.9034 7.2282 15.4313 7.22811 15.7569 7.55369L17.996 9.79284C18.3866 10.1834 18.3866 10.8165 17.996 11.2071L15.7566 13.4465Z"/></svg>