<svg xmlns="http://www.w3.org/2000/svg" width="21" height="20" fill="none" viewBox="0 0 21 20"><path fill="#000" d="M17.1706 9.16667C16.9496 9.16667 16.7376 9.25446 16.5813 9.41074C16.425 9.56702 16.3372 9.77899 16.3372 10V15C16.3372 15.221 16.2494 15.433 16.0932 15.5893C15.9369 15.7455 15.7249 15.8333 15.5039 15.8333H5.50391C5.28289 15.8333 5.07093 15.7455 4.91465 15.5893C4.75837 15.433 4.67057 15.221 4.67057 15V5C4.67057 4.77899 4.75837 4.56702 4.91465 4.41074C5.07093 4.25446 5.28289 4.16667 5.50391 4.16667H10.5039C10.7249 4.16667 10.9369 4.07887 11.0932 3.92259C11.2494 3.76631 11.3372 3.55435 11.3372 3.33333C11.3372 3.11232 11.2494 2.90036 11.0932 2.74408C10.9369 2.5878 10.7249 2.5 10.5039 2.5H5.50391C4.84087 2.5 4.20498 2.76339 3.73614 3.23223C3.2673 3.70107 3.00391 4.33696 3.00391 5V15C3.00391 15.663 3.2673 16.2989 3.73614 16.7678C4.20498 17.2366 4.84087 17.5 5.50391 17.5H15.5039C16.1669 17.5 16.8028 17.2366 17.2717 16.7678C17.7405 16.2989 18.0039 15.663 18.0039 15V10C18.0039 9.77899 17.9161 9.56702 17.7598 9.41074C17.6035 9.25446 17.3916 9.16667 17.1706 9.16667Z"/><path fill="#000" d="M13.837 4.16667H15.1537L9.91203 9.4C9.83392 9.47747 9.77192 9.56964 9.72962 9.67119C9.68731 9.77273 9.66553 9.88166 9.66553 9.99167C9.66553 10.1017 9.68731 10.2106 9.72962 10.3121C9.77192 10.4137 9.83392 10.5059 9.91203 10.5833C9.9895 10.6614 10.0817 10.7234 10.1832 10.7657C10.2848 10.808 10.3937 10.8298 10.5037 10.8298C10.6137 10.8298 10.7226 10.808 10.8242 10.7657C10.9257 10.7234 11.0179 10.6614 11.0954 10.5833L16.337 5.35V6.66667C16.337 6.88768 16.4248 7.09964 16.5811 7.25592C16.7374 7.4122 16.9493 7.5 17.1704 7.5C17.3914 7.5 17.6033 7.4122 17.7596 7.25592C17.9159 7.09964 18.0037 6.88768 18.0037 6.66667V3.33333C18.0037 3.11232 17.9159 2.90036 17.7596 2.74408C17.6033 2.5878 17.3914 2.5 17.1704 2.5H13.837C13.616 2.5 13.404 2.5878 13.2478 2.74408C13.0915 2.90036 13.0037 3.11232 13.0037 3.33333C13.0037 3.55435 13.0915 3.76631 13.2478 3.92259C13.404 4.07887 13.616 4.16667 13.837 4.16667Z"/></svg>