<svg xmlns="http://www.w3.org/2000/svg" width="20" height="20" fill="none" viewBox="0 0 20 20"><path fill="#342E2D" d="M16.8069 8.53059C16.2985 8.31478 15.8333 7.88546 15.8333 7.33317V5.83317C15.8333 4.914 15.0858 4.1665 14.1667 4.1665H12.6667C12.1144 4.1665 11.6851 3.70131 11.4693 3.19294C11.0888 2.29676 10.1999 1.6665 9.16667 1.6665C8.13348 1.6665 7.24451 2.29676 6.86408 3.19294C6.64828 3.70131 6.21895 4.1665 5.66667 4.1665H4.16667C3.2475 4.1665 2.5 4.914 2.5 5.83317V8.48317C2.5 8.83382 2.71952 9.14695 3.04917 9.2665C3.7175 9.50817 4.16667 10.1382 4.16667 10.8332C4.16667 11.5282 3.7175 12.1582 3.04917 12.3998C2.71952 12.5194 2.5 12.8325 2.5 13.1832V15.8332C2.5 16.7523 3.2475 17.4998 4.16667 17.4998H6.81667C7.16732 17.4998 7.48045 17.2803 7.6 16.9507C7.84167 16.2823 8.47167 15.8332 9.16667 15.8332C9.86167 15.8332 10.4917 16.2823 10.7333 16.9507C10.8529 17.2803 11.166 17.4998 11.5167 17.4998H14.1667C15.0858 17.4998 15.8333 16.7523 15.8333 15.8332V14.3332C15.8333 13.7809 16.2985 13.3516 16.8069 13.1358C17.7031 12.7553 18.3333 11.8664 18.3333 10.8332C18.3333 9.79998 17.7031 8.91101 16.8069 8.53059ZM15.8333 11.6665H15.1661C14.614 11.6665 14.1664 12.1139 14.1661 12.6659L14.1648 14.8338C14.1644 15.3858 13.7168 15.8332 13.1648 15.8332H12.618C12.2622 15.8332 11.9418 15.6362 11.7131 15.3637C11.0897 14.6207 10.1628 14.1665 9.16667 14.1665C8.1705 14.1665 7.24362 14.6207 6.6202 15.3637C6.39148 15.6362 6.07117 15.8332 5.71536 15.8332H5.16667C4.61438 15.8332 4.16667 15.3855 4.16667 14.8332V14.2845C4.16667 13.9287 4.3636 13.6084 4.63617 13.3796C5.37911 12.7562 5.83333 11.8293 5.83333 10.8332C5.83333 9.837 5.37911 8.91013 4.63617 8.28671C4.3636 8.05799 4.16667 7.73768 4.16667 7.38186V6.83317C4.16667 6.28089 4.61438 5.83317 5.16667 5.83317H7.33333C7.88562 5.83317 8.33333 5.38546 8.33333 4.83317V4.1665C8.33333 3.94549 8.42113 3.73353 8.57741 3.57725C8.73369 3.42097 8.94565 3.33317 9.16667 3.33317C9.38768 3.33317 9.59964 3.42097 9.75592 3.57725C9.9122 3.73353 10 3.94549 10 4.1665V4.83317C10 5.38546 10.4477 5.83317 11 5.83317H13.1667C13.719 5.83317 14.1667 6.28089 14.1667 6.83317V8.99984C14.1667 9.55212 14.6144 9.99984 15.1667 9.99984H15.8333C16.0543 9.99984 16.2663 10.0876 16.4226 10.2439C16.5789 10.4002 16.6667 10.6122 16.6667 10.8332C16.6667 11.0542 16.5789 11.2661 16.4226 11.4224C16.2663 11.5787 16.0543 11.6665 15.8333 11.6665Z"/></svg>