<svg width="20" height="20" viewBox="0 0 20 20" fill="none" xmlns="http://www.w3.org/2000/svg">
<path d="M9.99984 16.6666C11.7679 16.6666 13.4636 15.9642 14.7139 14.714C15.9641 13.4638 16.6665 11.7681 16.6665 9.99996C16.6665 8.23185 15.9641 6.53616 14.7139 5.28591C13.4636 4.03567 11.7679 3.33329 9.99984 3.33329C8.23173 3.33329 6.53604 4.03567 5.28579 5.28591C4.03555 6.53616 3.33317 8.23185 3.33317 9.99996C3.33317 11.7681 4.03555 13.4638 5.28579 14.714C6.53604 15.9642 8.23173 16.6666 9.99984 16.6666ZM9.99984 18.3333C5.39734 18.3333 1.6665 14.6025 1.6665 9.99996C1.6665 5.39746 5.39734 1.66663 9.99984 1.66663C14.6023 1.66663 18.3332 5.39746 18.3332 9.99996C18.3332 14.6025 14.6023 18.3333 9.99984 18.3333ZM9.99984 13.3333C10.8839 13.3333 11.7317 12.9821 12.3569 12.357C12.982 11.7319 13.3332 10.884 13.3332 9.99996C13.3332 9.1159 12.982 8.26806 12.3569 7.64294C11.7317 7.01782 10.8839 6.66663 9.99984 6.66663C9.11578 6.66663 8.26794 7.01782 7.64281 7.64294C7.01769 8.26806 6.6665 9.1159 6.6665 9.99996C6.6665 10.884 7.01769 11.7319 7.64281 12.357C8.26794 12.9821 9.11578 13.3333 9.99984 13.3333ZM9.99984 15C8.67376 15 7.40199 14.4732 6.4643 13.5355C5.52662 12.5978 4.99984 11.326 4.99984 9.99996C4.99984 8.67388 5.52662 7.40211 6.4643 6.46443C7.40199 5.52674 8.67376 4.99996 9.99984 4.99996C11.3259 4.99996 12.5977 5.52674 13.5354 6.46443C14.4731 7.40211 14.9998 8.67388 14.9998 9.99996C14.9998 11.326 14.4731 12.5978 13.5354 13.5355C12.5977 14.4732 11.3259 15 9.99984 15ZM9.99984 11.6666C9.55781 11.6666 9.13389 11.491 8.82133 11.1785C8.50877 10.8659 8.33317 10.442 8.33317 9.99996C8.33317 9.55793 8.50877 9.13401 8.82133 8.82145C9.13389 8.50889 9.55781 8.33329 9.99984 8.33329C10.4419 8.33329 10.8658 8.50889 11.1783 8.82145C11.4909 9.13401 11.6665 9.55793 11.6665 9.99996C11.6665 10.442 11.4909 10.8659 11.1783 11.1785C10.8658 11.491 10.4419 11.6666 9.99984 11.6666Z" fill="#342E2D"/>
</svg>
