<svg width="20" height="20" viewBox="0 0 20 20" fill="none" xmlns="http://www.w3.org/2000/svg">
<path d="M2.50015 10.8333C2.96039 10.8333 3.33348 11.2064 3.33348 11.6667V16.6667C3.33348 17.5858 4.08098 18.3333 5.00015 18.3333H15.0001C15.9193 18.3333 16.6668 17.5858 16.6668 16.6667V11.6667C16.6668 11.2064 17.0399 10.8333 17.5001 10.8333C17.6649 10.8333 17.826 10.7844 17.963 10.6928C18.1 10.6013 18.2068 10.4711 18.2699 10.3189C18.3329 10.1666 18.3494 9.99911 18.3173 9.83748C18.2852 9.67585 18.2058 9.52738 18.0893 9.41084L10.5893 1.91084C10.512 1.83338 10.4202 1.77194 10.3191 1.73001C10.218 1.68808 10.1096 1.6665 10.0001 1.6665C9.8907 1.6665 9.78233 1.68808 9.68124 1.73001C9.58014 1.77194 9.4883 1.83338 9.41098 1.91084L1.91098 9.41084C1.79447 9.52738 1.71513 9.67585 1.683 9.83748C1.65086 9.99911 1.66736 10.1666 1.73042 10.3189C1.79347 10.4711 1.90026 10.6013 2.03727 10.6928C2.17427 10.7844 2.33536 10.8333 2.50015 10.8333ZM9.33348 16.6667C8.78119 16.6667 8.33348 16.219 8.33348 15.6667V13.5C8.33348 12.9477 8.7812 12.5 9.33348 12.5H10.6668C11.2191 12.5 11.6668 12.9477 11.6668 13.5V15.6667C11.6668 16.219 11.2191 16.6667 10.6668 16.6667H9.33348ZM9.29304 4.38544C9.68357 3.99492 10.3167 3.99492 10.7073 4.38545L14.7073 8.38544C14.8948 8.57298 15.0001 8.82733 15.0001 9.09255V12.5L15.0008 15.8328C15.0009 16.2933 14.6276 16.6667 14.1671 16.6667C13.7067 16.6667 13.3335 16.2934 13.3335 15.833V12.5C13.3335 11.5808 12.586 10.8333 11.6668 10.8333H8.33348C7.41431 10.8333 6.66681 11.5808 6.66681 12.5V15.8333C6.66681 16.2936 6.29372 16.6667 5.83348 16.6667C5.37324 16.6667 5.00015 16.2936 5.00015 15.8333V9.09255C5.00015 8.82734 5.1055 8.57298 5.29304 8.38544L9.29304 4.38544Z" fill="black"/>
</svg>
