<svg width="20" height="20" viewBox="0 0 20 20" fill="none" xmlns="http://www.w3.org/2000/svg">
<path d="M9.99984 1.66663C8.35166 1.66663 6.7405 2.15537 5.37009 3.07105C3.99968 3.98672 2.93158 5.28821 2.30084 6.81093C1.67011 8.33365 1.50509 10.0092 1.82663 11.6257C2.14817 13.2422 2.94185 14.7271 4.10728 15.8925C5.27272 17.058 6.75758 17.8516 8.37409 18.1732C9.9906 18.4947 11.6662 18.3297 13.1889 17.699C14.7116 17.0682 16.0131 16.0001 16.9288 14.6297C17.8444 13.2593 18.3332 11.6481 18.3332 9.99996C18.3332 8.90561 18.1176 7.82198 17.6988 6.81093C17.28 5.79988 16.6662 4.88122 15.8924 4.1074C15.1186 3.33358 14.1999 2.71975 13.1889 2.30096C12.1778 1.88217 11.0942 1.66663 9.99984 1.66663ZM9.99984 16.6666C8.6813 16.6666 7.39237 16.2756 6.29604 15.5431C5.19971 14.8105 4.34523 13.7694 3.84064 12.5512C3.33606 11.333 3.20404 9.99256 3.46127 8.69936C3.71851 7.40615 4.35345 6.21826 5.2858 5.28591C6.21815 4.35356 7.40603 3.71863 8.69924 3.46139C9.99245 3.20416 11.3329 3.33618 12.5511 3.84076C13.7692 4.34535 14.8104 5.19983 15.543 6.29616C16.2755 7.39249 16.6665 8.68142 16.6665 9.99996C16.6665 11.7681 15.9641 13.4638 14.7139 14.714C13.4636 15.9642 11.768 16.6666 9.99984 16.6666Z" fill="#342E2D"/>
<path d="M9.99984 7.49992C10.4601 7.49992 10.8332 7.12682 10.8332 6.66659C10.8332 6.20635 10.4601 5.83325 9.99984 5.83325C9.5396 5.83325 9.1665 6.20635 9.1665 6.66659C9.1665 7.12682 9.5396 7.49992 9.99984 7.49992Z" fill="#342E2D"/>
<path d="M9.99984 8.33325C9.77882 8.33325 9.56686 8.42105 9.41058 8.57733C9.2543 8.73361 9.1665 8.94557 9.1665 9.16659V13.3333C9.1665 13.5543 9.2543 13.7662 9.41058 13.9225C9.56686 14.0788 9.77882 14.1666 9.99984 14.1666C10.2209 14.1666 10.4328 14.0788 10.5891 13.9225C10.7454 13.7662 10.8332 13.5543 10.8332 13.3333V9.16659C10.8332 8.94557 10.7454 8.73361 10.5891 8.57733C10.4328 8.42105 10.2209 8.33325 9.99984 8.33325Z" fill="#342E2D"/>
</svg>
