<svg width="21" height="20" viewBox="0 0 21 20" fill="none" xmlns="http://www.w3.org/2000/svg">
<path d="M1.48828 3.07816L1.48828 10.1346C1.48828 14.7665 5.24319 18.5214 9.87511 18.5214H10.1306C14.8368 18.5214 18.652 14.7062 18.652 9.99995C18.652 5.29369 14.8368 1.47852 10.1306 1.47852L3.08792 1.47852C2.20447 1.47852 1.48828 2.1947 1.48828 3.07816Z" fill="#3778FF"/>
<path d="M6.4013 9.44153V12.2561C6.4013 12.6269 6.10772 12.9275 5.74557 12.9275C5.38342 12.9275 5.08984 12.6269 5.08984 12.2561V6.31701C5.08984 5.97473 5.36084 5.69727 5.69513 5.69727L12.555 5.69727C13.8922 5.69727 14.9762 6.80713 14.9762 8.17623V12.2562C14.9762 12.627 14.6826 12.9276 14.3205 12.9276C13.9583 12.9276 13.6647 12.627 13.6647 12.2562V8.40863C13.6647 7.56721 12.9985 6.8851 12.1767 6.8851C11.3549 6.8851 10.6887 7.56706 10.6887 8.40849V12.2582C10.6887 12.629 10.3952 12.9276 10.033 12.9276C9.67087 12.9276 9.37729 12.6278 9.37729 12.257V9.44065C9.37729 8.59923 8.71109 7.918 7.88929 7.918C7.0675 7.918 6.4013 8.60011 6.4013 9.44153Z" fill="white"/>
</svg>
