<svg width="21" height="21" viewBox="0 0 21 21" fill="none" xmlns="http://www.w3.org/2000/svg">
<path d="M9.67025 5.55233C9.67025 6.01256 10.0433 6.38566 10.5036 6.38566C10.9638 6.38566 11.3369 6.01256 11.3369 5.55233C11.3369 5.09209 10.9638 4.71899 10.5036 4.71899C10.0433 4.71899 9.67025 5.09209 9.67025 5.55233Z" fill="black" stroke="black" stroke-width="1.2"/>
<path d="M9.67025 10.7191C9.67025 11.1793 10.0433 11.5524 10.5036 11.5524C10.9638 11.5524 11.3369 11.1793 11.3369 10.7191C11.3369 10.2588 10.9638 9.88574 10.5036 9.88574C10.0433 9.88574 9.67025 10.2588 9.67025 10.7191Z" fill="black" stroke="black" stroke-width="1.2"/>
<path d="M9.67025 15.8856C9.67025 16.3458 10.0433 16.7189 10.5036 16.7189C10.9638 16.7189 11.3369 16.3458 11.3369 15.8856C11.3369 15.4253 10.9638 15.0522 10.5036 15.0522C10.0433 15.0522 9.67025 15.4253 9.67025 15.8856Z" fill="black" stroke="black" stroke-width="1.2"/>
</svg>
