<svg width="20" height="20" viewBox="0 0 20 20" fill="none" xmlns="http://www.w3.org/2000/svg">
<path d="M5.36377 5.36367C5.36377 5.15873 5.44518 4.96218 5.5901 4.81727C5.73501 4.67235 5.93156 4.59094 6.1365 4.59094H13.8638C14.0687 4.59094 14.2653 4.67235 14.4102 4.81727C14.5551 4.96218 14.6365 5.15873 14.6365 5.36367C14.6365 5.56861 14.5551 5.76516 14.4102 5.91007C14.2653 6.05499 14.0687 6.1364 13.8638 6.1364H6.1365C5.93156 6.1364 5.73501 6.05499 5.5901 5.91007C5.44518 5.76516 5.36377 5.56861 5.36377 5.36367Z" fill="#342E2D"/>
<path d="M5.36377 8.45461C5.36377 8.24967 5.44518 8.05313 5.5901 7.90821C5.73501 7.7633 5.93156 7.68188 6.1365 7.68188H13.8638C14.0687 7.68188 14.2653 7.7633 14.4102 7.90821C14.5551 8.05313 14.6365 8.24967 14.6365 8.45461C14.6365 8.65955 14.5551 8.8561 14.4102 9.00101C14.2653 9.14593 14.0687 9.22734 13.8638 9.22734H6.1365C5.93156 9.22734 5.73501 9.14593 5.5901 9.00101C5.44518 8.8561 5.36377 8.65955 5.36377 8.45461Z" fill="#342E2D"/>
<path d="M6.1365 10.7727C5.93156 10.7727 5.73501 10.8541 5.5901 10.999C5.44518 11.1439 5.36377 11.3405 5.36377 11.5454C5.36377 11.7504 5.44518 11.9469 5.5901 12.0918C5.73501 12.2367 5.93156 12.3182 6.1365 12.3182H13.8638C14.0687 12.3182 14.2653 12.2367 14.4102 12.0918C14.5551 11.9469 14.6365 11.7504 14.6365 11.5454C14.6365 11.3405 14.5551 11.1439 14.4102 10.999C14.2653 10.8541 14.0687 10.7727 13.8638 10.7727H6.1365Z" fill="#342E2D"/>
<path d="M5.36377 14.6364C5.36377 14.4314 5.44518 14.2349 5.5901 14.09C5.73501 13.9451 5.93156 13.8636 6.1365 13.8636H9.22741C9.43235 13.8636 9.62889 13.9451 9.77381 14.09C9.91872 14.2349 10.0001 14.4314 10.0001 14.6364C10.0001 14.8413 9.91872 15.0379 9.77381 15.1828C9.62889 15.3277 9.43235 15.4091 9.22741 15.4091H6.1365C5.93156 15.4091 5.73501 15.3277 5.5901 15.1828C5.44518 15.0379 5.36377 14.8413 5.36377 14.6364Z" fill="#342E2D"/>
<path fill-rule="evenodd" clip-rule="evenodd" d="M2.27295 3.81818C2.27295 3.20336 2.51719 2.61372 2.95193 2.17898C3.38667 1.74424 3.97631 1.5 4.59113 1.5H15.4093C16.0241 1.5 16.6138 1.74424 17.0485 2.17898C17.4833 2.61372 17.7275 3.20336 17.7275 3.81818V16.1818C17.7275 16.7966 17.4833 17.3863 17.0485 17.821C16.6138 18.2558 16.0241 18.5 15.4093 18.5H4.59113C3.97631 18.5 3.38667 18.2558 2.95193 17.821C2.51719 17.3863 2.27295 16.7966 2.27295 16.1818V3.81818ZM4.59113 3.04545H15.4093C15.6143 3.04545 15.8108 3.12687 15.9557 3.27178C16.1006 3.4167 16.182 3.61324 16.182 3.81818V16.1818C16.182 16.3868 16.1006 16.5833 15.9557 16.7282C15.8108 16.8731 15.6143 16.9545 15.4093 16.9545H4.59113C4.38619 16.9545 4.18965 16.8731 4.04473 16.7282C3.89982 16.5833 3.8184 16.3868 3.8184 16.1818V3.81818C3.8184 3.61324 3.89982 3.4167 4.04473 3.27178C4.18965 3.12687 4.38619 3.04545 4.59113 3.04545Z" fill="#342E2D"/>
</svg>
