<svg xmlns="http://www.w3.org/2000/svg" width="20" height="20" fill="none" viewBox="0 0 20 20"><mask id="path-1-outside-1" width="19" height="17" x=".25" y="1.502" fill="#000" maskUnits="userSpaceOnUse"><rect width="19" height="17" x=".25" y="1.502" fill="#fff"/><path fill-rule="evenodd" d="M8.23394 3.23394C7.76557 3.70231 7.50244 4.33756 7.50244 4.99994C7.50244 5.66232 7.76557 6.29757 8.23394 6.76594C8.70231 7.23431 9.33756 7.49744 9.99994 7.49744C10.6623 7.49744 11.2976 7.23431 11.7659 6.76594C12.2343 6.29757 12.4974 5.66232 12.4974 4.99994C12.4974 4.33756 12.2343 3.70231 11.7659 3.23394C11.2976 2.76557 10.6623 2.50244 9.99994 2.50244C9.33756 2.50244 8.70231 2.76557 8.23394 3.23394ZM9.52254 3.8474C9.6739 3.78471 9.83612 3.75244 9.99994 3.75244C10.3308 3.75244 10.6481 3.88387 10.8821 4.11783C11.116 4.35178 11.2474 4.66908 11.2474 4.99994C11.2474 5.3308 11.116 5.64811 10.8821 5.88206C10.6481 6.11601 10.3308 6.24744 9.99994 6.24744C9.83612 6.24744 9.6739 6.21517 9.52254 6.15248C9.37119 6.08979 9.23367 5.9979 9.11783 5.88206C9.00198 5.76622 8.91009 5.62869 8.8474 5.47734C8.78471 5.32598 8.75244 5.16377 8.75244 4.99994C8.75244 4.83612 8.78471 4.6739 8.8474 4.52254C8.91009 4.37119 9.00198 4.23367 9.11783 4.11783C9.23367 4.00198 9.37119 3.91009 9.52254 3.8474Z" clip-rule="evenodd"/><path fill-rule="evenodd" d="M13.8927 4.90747C13.7985 5.13495 13.75 5.37877 13.75 5.625C13.75 6.12228 13.9475 6.59919 14.2992 6.95083C14.6508 7.30246 15.1277 7.5 15.625 7.5C16.1223 7.5 16.5992 7.30246 16.9508 6.95083C17.3025 6.59919 17.5 6.12228 17.5 5.625C17.5 5.37877 17.4515 5.13495 17.3573 4.90747C17.263 4.67998 17.1249 4.47328 16.9508 4.29917C16.7767 4.12506 16.57 3.98695 16.3425 3.89273C16.115 3.7985 15.8712 3.75 15.625 3.75C15.3788 3.75 15.135 3.7985 14.9075 3.89273C14.68 3.98695 14.4733 4.12506 14.2992 4.29917C14.1251 4.47328 13.987 4.67998 13.8927 4.90747ZM15.1831 5.18306C15.3003 5.06585 15.4592 5 15.625 5C15.7908 5 15.9497 5.06585 16.0669 5.18306C16.1842 5.30027 16.25 5.45924 16.25 5.625C16.25 5.79076 16.1842 5.94973 16.0669 6.06694C15.9497 6.18415 15.7908 6.25 15.625 6.25C15.4592 6.25 15.3003 6.18415 15.1831 6.06694C15.0658 5.94973 15 5.79076 15 5.625C15 5.45924 15.0658 5.30027 15.1831 5.18306Z" clip-rule="evenodd"/><path fill-rule="evenodd" d="M4.375 3.75C3.87772 3.75 3.40081 3.94754 3.04917 4.29917C2.69754 4.65081 2.5 5.12772 2.5 5.625C2.5 6.12228 2.69754 6.59919 3.04917 6.95083C3.40081 7.30246 3.87772 7.5 4.375 7.5C4.87228 7.5 5.34919 7.30246 5.70083 6.95083C6.05246 6.59919 6.25 6.12228 6.25 5.625C6.25 5.12772 6.05246 4.65081 5.70083 4.29917C5.34919 3.94754 4.87228 3.75 4.375 3.75ZM3.75 5.625C3.75 5.45924 3.81585 5.30027 3.93306 5.18306C4.05027 5.06585 4.20924 5 4.375 5C4.54076 5 4.69973 5.06585 4.81694 5.18306C4.93415 5.30027 5 5.45924 5 5.625C5 5.79076 4.93415 5.94973 4.81694 6.06694C4.69973 6.18415 4.54076 6.25 4.375 6.25C4.20924 6.25 4.05027 6.18415 3.93306 6.06694C3.81585 5.94973 3.75 5.79076 3.75 5.625Z" clip-rule="evenodd"/><path d="M4.52091 10C4.7854 10 4.99512 9.78301 5.04546 9.52335C5.11562 9.16146 4.87355 8.75 4.50493 8.75H2.5C2.16848 8.75 1.85054 8.8817 1.61612 9.11612C1.3817 9.35054 1.25 9.66848 1.25 10V13.125C1.24983 13.6366 1.37528 14.1405 1.61534 14.5923C1.8554 15.0441 2.20272 15.4301 2.6268 15.7163C3.05089 16.0025 3.53876 16.1802 4.04757 16.2338C4.3582 16.2666 4.67083 16.2524 4.97519 16.1929C5.28931 16.1314 5.41898 15.7824 5.30797 15.4822C5.18919 15.161 4.82315 14.9782 4.48122 14.9976C4.39223 15.0027 4.30271 15.0014 4.21334 14.9936C3.90358 14.9668 3.60535 14.8634 3.34549 14.6927C3.08563 14.522 2.8723 14.2893 2.72471 14.0156C2.57712 13.742 2.4999 13.4359 2.5 13.125V11C2.5 10.4477 2.94772 10 3.5 10H4.52091Z"/><path d="M14.692 15.4813C14.5811 15.7821 14.7112 16.1316 15.0257 16.193C15.3298 16.2525 15.6422 16.2665 15.9525 16.2338C16.4613 16.1802 16.9492 16.0025 17.3733 15.7163C17.7974 15.4301 18.1447 15.0441 18.3847 14.5923C18.6248 14.1405 18.7502 13.6366 18.7501 13.125V10C18.7501 9.66848 18.6184 9.35054 18.384 9.11612C18.1495 8.8817 17.8316 8.75 17.5001 8.75H15.4953C15.1264 8.75 14.8808 9.1509 14.9525 9.5127C15.0039 9.77217 15.2145 10 15.479 10H16.5001C17.0524 10 17.5001 10.4477 17.5001 11V13.125C17.5002 13.4359 17.423 13.742 17.2754 14.0156C17.1278 14.2893 16.9145 14.522 16.6546 14.6927C16.3947 14.8634 16.0965 14.9668 15.7867 14.9936C15.697 15.0014 15.6072 15.0027 15.5179 14.9975C15.1761 14.978 14.8104 15.1601 14.692 15.4813Z"/><path fill-rule="evenodd" d="M6.61612 9.11612C6.85054 8.8817 7.16848 8.75 7.5 8.75H12.5C12.8315 8.75 13.1495 8.8817 13.3839 9.11612C13.6183 9.35054 13.75 9.66848 13.75 10V13.75C13.75 14.7446 13.3549 15.6984 12.6517 16.4017C11.9484 17.1049 10.9946 17.5 10 17.5C9.00544 17.5 8.05161 17.1049 7.34835 16.4017C6.64509 15.6984 6.25 14.7446 6.25 13.75V10C6.25 9.66848 6.3817 9.35054 6.61612 9.11612ZM12.5 11C12.5 10.4477 12.0523 10 11.5 10H8.5C7.94772 10 7.5 10.4477 7.5 11V13.75C7.5 14.413 7.76339 15.0489 8.23223 15.5178C8.70107 15.9866 9.33696 16.25 10 16.25C10.663 16.25 11.2989 15.9866 11.7678 15.5178C12.2366 15.0489 12.5 14.413 12.5 13.75V11Z" clip-rule="evenodd"/></mask><path fill="#342E2D" fill-rule="evenodd" d="M8.23394 3.23394C7.76557 3.70231 7.50244 4.33756 7.50244 4.99994C7.50244 5.66232 7.76557 6.29757 8.23394 6.76594C8.70231 7.23431 9.33756 7.49744 9.99994 7.49744C10.6623 7.49744 11.2976 7.23431 11.7659 6.76594C12.2343 6.29757 12.4974 5.66232 12.4974 4.99994C12.4974 4.33756 12.2343 3.70231 11.7659 3.23394C11.2976 2.76557 10.6623 2.50244 9.99994 2.50244C9.33756 2.50244 8.70231 2.76557 8.23394 3.23394ZM9.52254 3.8474C9.6739 3.78471 9.83612 3.75244 9.99994 3.75244C10.3308 3.75244 10.6481 3.88387 10.8821 4.11783C11.116 4.35178 11.2474 4.66908 11.2474 4.99994C11.2474 5.3308 11.116 5.64811 10.8821 5.88206C10.6481 6.11601 10.3308 6.24744 9.99994 6.24744C9.83612 6.24744 9.6739 6.21517 9.52254 6.15248C9.37119 6.08979 9.23367 5.9979 9.11783 5.88206C9.00198 5.76622 8.91009 5.62869 8.8474 5.47734C8.78471 5.32598 8.75244 5.16377 8.75244 4.99994C8.75244 4.83612 8.78471 4.6739 8.8474 4.52254C8.91009 4.37119 9.00198 4.23367 9.11783 4.11783C9.23367 4.00198 9.37119 3.91009 9.52254 3.8474Z" clip-rule="evenodd"/><path fill="#342E2D" fill-rule="evenodd" d="M13.8927 4.90747C13.7985 5.13495 13.75 5.37877 13.75 5.625C13.75 6.12228 13.9475 6.59919 14.2992 6.95083C14.6508 7.30246 15.1277 7.5 15.625 7.5C16.1223 7.5 16.5992 7.30246 16.9508 6.95083C17.3025 6.59919 17.5 6.12228 17.5 5.625C17.5 5.37877 17.4515 5.13495 17.3573 4.90747C17.263 4.67998 17.1249 4.47328 16.9508 4.29917C16.7767 4.12506 16.57 3.98695 16.3425 3.89273C16.115 3.7985 15.8712 3.75 15.625 3.75C15.3788 3.75 15.135 3.7985 14.9075 3.89273C14.68 3.98695 14.4733 4.12506 14.2992 4.29917C14.1251 4.47328 13.987 4.67998 13.8927 4.90747ZM15.1831 5.18306C15.3003 5.06585 15.4592 5 15.625 5C15.7908 5 15.9497 5.06585 16.0669 5.18306C16.1842 5.30027 16.25 5.45924 16.25 5.625C16.25 5.79076 16.1842 5.94973 16.0669 6.06694C15.9497 6.18415 15.7908 6.25 15.625 6.25C15.4592 6.25 15.3003 6.18415 15.1831 6.06694C15.0658 5.94973 15 5.79076 15 5.625C15 5.45924 15.0658 5.30027 15.1831 5.18306Z" clip-rule="evenodd"/><path fill="#342E2D" fill-rule="evenodd" d="M4.375 3.75C3.87772 3.75 3.40081 3.94754 3.04917 4.29917C2.69754 4.65081 2.5 5.12772 2.5 5.625C2.5 6.12228 2.69754 6.59919 3.04917 6.95083C3.40081 7.30246 3.87772 7.5 4.375 7.5C4.87228 7.5 5.34919 7.30246 5.70083 6.95083C6.05246 6.59919 6.25 6.12228 6.25 5.625C6.25 5.12772 6.05246 4.65081 5.70083 4.29917C5.34919 3.94754 4.87228 3.75 4.375 3.75ZM3.75 5.625C3.75 5.45924 3.81585 5.30027 3.93306 5.18306C4.05027 5.06585 4.20924 5 4.375 5C4.54076 5 4.69973 5.06585 4.81694 5.18306C4.93415 5.30027 5 5.45924 5 5.625C5 5.79076 4.93415 5.94973 4.81694 6.06694C4.69973 6.18415 4.54076 6.25 4.375 6.25C4.20924 6.25 4.05027 6.18415 3.93306 6.06694C3.81585 5.94973 3.75 5.79076 3.75 5.625Z" clip-rule="evenodd"/><path fill="#342E2D" d="M4.52091 10C4.7854 10 4.99512 9.78301 5.04546 9.52335C5.11562 9.16146 4.87355 8.75 4.50493 8.75H2.5C2.16848 8.75 1.85054 8.8817 1.61612 9.11612C1.3817 9.35054 1.25 9.66848 1.25 10V13.125C1.24983 13.6366 1.37528 14.1405 1.61534 14.5923C1.8554 15.0441 2.20272 15.4301 2.6268 15.7163C3.05089 16.0025 3.53876 16.1802 4.04757 16.2338C4.3582 16.2666 4.67083 16.2524 4.97519 16.1929C5.28931 16.1314 5.41898 15.7824 5.30797 15.4822C5.18919 15.161 4.82315 14.9782 4.48122 14.9976C4.39223 15.0027 4.30271 15.0014 4.21334 14.9936C3.90358 14.9668 3.60535 14.8634 3.34549 14.6927C3.08563 14.522 2.8723 14.2893 2.72471 14.0156C2.57712 13.742 2.4999 13.4359 2.5 13.125V11C2.5 10.4477 2.94772 10 3.5 10H4.52091Z"/><path fill="#342E2D" d="M14.692 15.4813C14.5811 15.7821 14.7112 16.1316 15.0257 16.193C15.3298 16.2525 15.6422 16.2665 15.9525 16.2338C16.4613 16.1802 16.9492 16.0025 17.3733 15.7163C17.7974 15.4301 18.1447 15.0441 18.3847 14.5923C18.6248 14.1405 18.7502 13.6366 18.7501 13.125V10C18.7501 9.66848 18.6184 9.35054 18.384 9.11612C18.1495 8.8817 17.8316 8.75 17.5001 8.75H15.4953C15.1264 8.75 14.8808 9.1509 14.9525 9.5127C15.0039 9.77217 15.2145 10 15.479 10H16.5001C17.0524 10 17.5001 10.4477 17.5001 11V13.125C17.5002 13.4359 17.423 13.742 17.2754 14.0156C17.1278 14.2893 16.9145 14.522 16.6546 14.6927C16.3947 14.8634 16.0965 14.9668 15.7867 14.9936C15.697 15.0014 15.6072 15.0027 15.5179 14.9975C15.1761 14.978 14.8104 15.1601 14.692 15.4813Z"/><path fill="#342E2D" fill-rule="evenodd" d="M6.61612 9.11612C6.85054 8.8817 7.16848 8.75 7.5 8.75H12.5C12.8315 8.75 13.1495 8.8817 13.3839 9.11612C13.6183 9.35054 13.75 9.66848 13.75 10V13.75C13.75 14.7446 13.3549 15.6984 12.6517 16.4017C11.9484 17.1049 10.9946 17.5 10 17.5C9.00544 17.5 8.05161 17.1049 7.34835 16.4017C6.64509 15.6984 6.25 14.7446 6.25 13.75V10C6.25 9.66848 6.3817 9.35054 6.61612 9.11612ZM12.5 11C12.5 10.4477 12.0523 10 11.5 10H8.5C7.94772 10 7.5 10.4477 7.5 11V13.75C7.5 14.413 7.76339 15.0489 8.23223 15.5178C8.70107 15.9866 9.33696 16.25 10 16.25C10.663 16.25 11.2989 15.9866 11.7678 15.5178C12.2366 15.0489 12.5 14.413 12.5 13.75V11Z" clip-rule="evenodd"/><path fill-rule="evenodd" stroke="#342E2D" stroke-width=".4" d="M8.23394 3.23394C7.76557 3.70231 7.50244 4.33756 7.50244 4.99994C7.50244 5.66232 7.76557 6.29757 8.23394 6.76594C8.70231 7.23431 9.33756 7.49744 9.99994 7.49744C10.6623 7.49744 11.2976 7.23431 11.7659 6.76594C12.2343 6.29757 12.4974 5.66232 12.4974 4.99994C12.4974 4.33756 12.2343 3.70231 11.7659 3.23394C11.2976 2.76557 10.6623 2.50244 9.99994 2.50244C9.33756 2.50244 8.70231 2.76557 8.23394 3.23394ZM9.52254 3.8474C9.6739 3.78471 9.83612 3.75244 9.99994 3.75244C10.3308 3.75244 10.6481 3.88387 10.8821 4.11783C11.116 4.35178 11.2474 4.66908 11.2474 4.99994C11.2474 5.3308 11.116 5.64811 10.8821 5.88206C10.6481 6.11601 10.3308 6.24744 9.99994 6.24744C9.83612 6.24744 9.6739 6.21517 9.52254 6.15248C9.37119 6.08979 9.23367 5.9979 9.11783 5.88206C9.00198 5.76622 8.91009 5.62869 8.8474 5.47734C8.78471 5.32598 8.75244 5.16377 8.75244 4.99994C8.75244 4.83612 8.78471 4.6739 8.8474 4.52254C8.91009 4.37119 9.00198 4.23367 9.11783 4.11783C9.23367 4.00198 9.37119 3.91009 9.52254 3.8474Z" clip-rule="evenodd" mask="url(#path-1-outside-1)"/><path fill-rule="evenodd" stroke="#342E2D" stroke-width=".4" d="M13.8927 4.90747C13.7985 5.13495 13.75 5.37877 13.75 5.625C13.75 6.12228 13.9475 6.59919 14.2992 6.95083C14.6508 7.30246 15.1277 7.5 15.625 7.5C16.1223 7.5 16.5992 7.30246 16.9508 6.95083C17.3025 6.59919 17.5 6.12228 17.5 5.625C17.5 5.37877 17.4515 5.13495 17.3573 4.90747C17.263 4.67998 17.1249 4.47328 16.9508 4.29917C16.7767 4.12506 16.57 3.98695 16.3425 3.89273C16.115 3.7985 15.8712 3.75 15.625 3.75C15.3788 3.75 15.135 3.7985 14.9075 3.89273C14.68 3.98695 14.4733 4.12506 14.2992 4.29917C14.1251 4.47328 13.987 4.67998 13.8927 4.90747ZM15.1831 5.18306C15.3003 5.06585 15.4592 5 15.625 5C15.7908 5 15.9497 5.06585 16.0669 5.18306C16.1842 5.30027 16.25 5.45924 16.25 5.625C16.25 5.79076 16.1842 5.94973 16.0669 6.06694C15.9497 6.18415 15.7908 6.25 15.625 6.25C15.4592 6.25 15.3003 6.18415 15.1831 6.06694C15.0658 5.94973 15 5.79076 15 5.625C15 5.45924 15.0658 5.30027 15.1831 5.18306Z" clip-rule="evenodd" mask="url(#path-1-outside-1)"/><path fill-rule="evenodd" stroke="#342E2D" stroke-width=".4" d="M4.375 3.75C3.87772 3.75 3.40081 3.94754 3.04917 4.29917C2.69754 4.65081 2.5 5.12772 2.5 5.625C2.5 6.12228 2.69754 6.59919 3.04917 6.95083C3.40081 7.30246 3.87772 7.5 4.375 7.5C4.87228 7.5 5.34919 7.30246 5.70083 6.95083C6.05246 6.59919 6.25 6.12228 6.25 5.625C6.25 5.12772 6.05246 4.65081 5.70083 4.29917C5.34919 3.94754 4.87228 3.75 4.375 3.75ZM3.75 5.625C3.75 5.45924 3.81585 5.30027 3.93306 5.18306C4.05027 5.06585 4.20924 5 4.375 5C4.54076 5 4.69973 5.06585 4.81694 5.18306C4.93415 5.30027 5 5.45924 5 5.625C5 5.79076 4.93415 5.94973 4.81694 6.06694C4.69973 6.18415 4.54076 6.25 4.375 6.25C4.20924 6.25 4.05027 6.18415 3.93306 6.06694C3.81585 5.94973 3.75 5.79076 3.75 5.625Z" clip-rule="evenodd" mask="url(#path-1-outside-1)"/><path stroke="#342E2D" stroke-width=".4" d="M4.52091 10C4.7854 10 4.99512 9.78301 5.04546 9.52335C5.11562 9.16146 4.87355 8.75 4.50493 8.75H2.5C2.16848 8.75 1.85054 8.8817 1.61612 9.11612C1.3817 9.35054 1.25 9.66848 1.25 10V13.125C1.24983 13.6366 1.37528 14.1405 1.61534 14.5923C1.8554 15.0441 2.20272 15.4301 2.6268 15.7163C3.05089 16.0025 3.53876 16.1802 4.04757 16.2338C4.3582 16.2666 4.67083 16.2524 4.97519 16.1929C5.28931 16.1314 5.41898 15.7824 5.30797 15.4822C5.18919 15.161 4.82315 14.9782 4.48122 14.9976C4.39223 15.0027 4.30271 15.0014 4.21334 14.9936C3.90358 14.9668 3.60535 14.8634 3.34549 14.6927C3.08563 14.522 2.8723 14.2893 2.72471 14.0156C2.57712 13.742 2.4999 13.4359 2.5 13.125V11C2.5 10.4477 2.94772 10 3.5 10H4.52091Z" mask="url(#path-1-outside-1)"/><path stroke="#342E2D" stroke-width=".4" d="M14.692 15.4813C14.5811 15.7821 14.7112 16.1316 15.0257 16.193C15.3298 16.2525 15.6422 16.2665 15.9525 16.2338C16.4613 16.1802 16.9492 16.0025 17.3733 15.7163C17.7974 15.4301 18.1447 15.0441 18.3847 14.5923C18.6248 14.1405 18.7502 13.6366 18.7501 13.125V10C18.7501 9.66848 18.6184 9.35054 18.384 9.11612C18.1495 8.8817 17.8316 8.75 17.5001 8.75H15.4953C15.1264 8.75 14.8808 9.1509 14.9525 9.5127C15.0039 9.77217 15.2145 10 15.479 10H16.5001C17.0524 10 17.5001 10.4477 17.5001 11V13.125C17.5002 13.4359 17.423 13.742 17.2754 14.0156C17.1278 14.2893 16.9145 14.522 16.6546 14.6927C16.3947 14.8634 16.0965 14.9668 15.7867 14.9936C15.697 15.0014 15.6072 15.0027 15.5179 14.9975C15.1761 14.978 14.8104 15.1601 14.692 15.4813Z" mask="url(#path-1-outside-1)"/><path fill-rule="evenodd" stroke="#342E2D" stroke-width=".4" d="M6.61612 9.11612C6.85054 8.8817 7.16848 8.75 7.5 8.75H12.5C12.8315 8.75 13.1495 8.8817 13.3839 9.11612C13.6183 9.35054 13.75 9.66848 13.75 10V13.75C13.75 14.7446 13.3549 15.6984 12.6517 16.4017C11.9484 17.1049 10.9946 17.5 10 17.5C9.00544 17.5 8.05161 17.1049 7.34835 16.4017C6.64509 15.6984 6.25 14.7446 6.25 13.75V10C6.25 9.66848 6.3817 9.35054 6.61612 9.11612ZM12.5 11C12.5 10.4477 12.0523 10 11.5 10H8.5C7.94772 10 7.5 10.4477 7.5 11V13.75C7.5 14.413 7.76339 15.0489 8.23223 15.5178C8.70107 15.9866 9.33696 16.25 10 16.25C10.663 16.25 11.2989 15.9866 11.7678 15.5178C12.2366 15.0489 12.5 14.413 12.5 13.75V11Z" clip-rule="evenodd" mask="url(#path-1-outside-1)"/></svg>