<svg width="20" height="20" viewBox="0 0 20 20" fill="none" xmlns="http://www.w3.org/2000/svg">
<path d="M11.9393 1.71006L12.0128 1.77787L11.9393 1.71006C11.7176 1.95042 11.7251 2.32296 11.9563 2.55419C12.1257 2.72357 12.1141 3.00155 11.9313 3.15626L5.72933 8.40279C5.45408 8.63563 5.04646 8.61925 4.79078 8.36506L4.66821 8.2432C4.38815 7.96477 3.93611 7.96382 3.65488 8.24106C3.37056 8.52135 3.36852 8.97944 3.65033 9.26225L6.04266 11.663C6.39323 12.0148 6.39255 12.5841 6.04113 12.9351L1.96212 17.009L1.94353 17.0275L1.93646 17.0528L1.59411 18.2794L1.54628 18.4507L1.71753 18.4025L2.94845 18.056L2.97359 18.0489L2.99206 18.0304L7.06466 13.9578C7.41569 13.6068 7.98467 13.6063 8.33632 13.9567L10.7351 16.347C11.0191 16.63 11.4794 16.6271 11.7599 16.3406C12.0365 16.058 12.0341 15.6054 11.7545 15.3258L11.6355 15.2068C11.3812 14.9524 11.3642 14.5457 11.5965 14.2711L16.8488 8.06232C17.0011 7.88236 17.2744 7.8704 17.4418 8.03637C17.6779 8.27055 18.059 8.26975 18.2942 8.03457L18.3779 7.95087C18.6612 7.66757 18.66 7.20788 18.3753 6.926L13.0154 1.61973C12.7319 1.33901 12.272 1.34943 12.0015 1.64269L11.9393 1.71006ZM10.7881 12.9821C10.4479 13.3835 9.83731 13.4086 9.46522 13.0365L6.96331 10.5346C6.59122 10.1625 6.61634 9.55192 7.01774 9.21166L12.6682 4.4218C13.0255 4.11893 13.5554 4.14073 13.8866 4.47193L15.5279 6.11324C15.8591 6.44444 15.8809 6.97431 15.578 7.3316L10.7881 12.9821Z" fill="#342E2D" stroke="black" stroke-width="0.2"/>
</svg>
