<svg xmlns="http://www.w3.org/2000/svg" width="20" height="20" fill="none" viewBox="0 0 20 20"><path fill="#000" d="M1.875 2.32389V17.6755C1.8751 17.7088 1.88504 17.7413 1.90356 17.769C1.92208 17.7967 1.94836 17.8183 1.9791 17.8311C2.00985 17.8439 2.04369 17.8473 2.07638 17.841C2.10908 17.8346 2.13917 17.8188 2.16289 17.7954L10.1562 10.0001L2.16289 2.20397C2.13917 2.18059 2.10908 2.16472 2.07638 2.15838C2.04369 2.15203 2.00985 2.15547 1.9791 2.16828C1.94836 2.18109 1.92208 2.20268 1.90356 2.23037C1.88504 2.25805 1.8751 2.29059 1.875 2.32389Z"/><path fill="#000" d="M13.5078 6.79675L3.48513 1.27487L3.47888 1.27136C3.30623 1.17761 3.14216 1.4112 3.28357 1.54714L11.1402 9.05964L13.5078 6.79675Z"/><path fill="#000" d="M3.28452 18.4527C3.14233 18.5887 3.30639 18.8223 3.47983 18.7285L3.48608 18.725L13.508 13.2031L11.1404 10.9395L3.28452 18.4527Z"/><path fill="#000" d="M17.554 9.02334L14.7552 7.48193L12.1235 9.9999L14.7552 12.5167L17.554 10.9765C18.3153 10.5558 18.3153 9.44404 17.554 9.02334Z"/></svg>