<svg width="20" height="20" viewBox="0 0 20 20" fill="none" xmlns="http://www.w3.org/2000/svg">
<path d="M14.4667 5.62965L14.4669 5.62981C14.7393 5.90225 14.7143 6.34592 14.4328 6.6274L13.8953 7.16489C13.7189 7.34128 13.8438 7.64288 14.0933 7.64288H17.0895C17.236 7.64288 17.3578 7.52993 17.3687 7.38383L17.5813 4.5511C17.6 4.30169 17.3072 4.15474 17.1184 4.31878L16.8571 4.54587C16.4613 4.88976 15.8532 4.83152 15.467 4.45704C14.0777 3.10993 12.1846 2.28145 10.0986 2.28145C5.83688 2.28145 2.38743 5.72726 2.38192 9.99072C2.37641 14.2579 5.83318 17.7184 10.0986 17.7184C13.1887 17.7184 15.855 15.9005 17.0876 13.2753C17.2688 12.8893 17.0613 12.4496 16.672 12.3006C16.2741 12.1483 15.8284 12.3496 15.6795 12.7487L15.6023 12.9556C15.3611 13.3344 15.2201 13.5436 15.0694 13.7286C14.9176 13.9151 14.755 14.0782 14.4669 14.3664L14.4668 14.3664C13.904 14.9303 13.2377 15.3802 12.5044 15.6915C11.7451 16.0128 10.9355 16.1762 10.1022 16.1762C9.26713 16.1762 8.45933 16.0128 7.69999 15.6915L7.69993 15.6914C6.96599 15.3815 6.29949 14.9315 5.73772 14.3665L5.73748 14.3663C5.17321 13.8036 4.72382 13.1366 4.41434 12.4022L4.41432 12.4022C4.09296 11.641 3.92958 10.8332 3.92958 9.9981C3.92958 9.16303 4.09296 8.35521 4.41432 7.594L4.41433 7.59398C4.72492 6.85789 5.17011 6.19725 5.73756 5.62981C6.30497 5.0624 6.96562 4.61717 7.69999 4.30473C8.45932 3.9834 9.26893 3.82001 10.1022 3.82001C10.9373 3.82001 11.7451 3.9834 12.5044 4.30473L12.5045 4.30475C13.2384 4.6147 13.9049 5.06472 14.4667 5.62965Z" fill="#342E2D" stroke="#342E2D" stroke-width="0.16"/>
</svg>
