<svg xmlns="http://www.w3.org/2000/svg" width="20" height="20" fill="none" viewBox="0 0 20 20"><path fill="#342E2D" fill-rule="evenodd" d="M4.16659 3.33004C3.70451 3.33004 3.32992 3.70463 3.32992 4.16671V15.8334C3.32992 16.2955 3.70451 16.67 4.16659 16.67H5.66992C6.22221 16.67 6.66992 16.2223 6.66992 15.67V4.33004C6.66992 3.77776 6.22221 3.33004 5.66992 3.33004H4.16659ZM4.16659 1.67004C2.78772 1.67004 1.66992 2.78784 1.66992 4.16671V15.8334C1.66992 17.2122 2.78772 18.33 4.16659 18.33H15.8333C17.2121 18.33 18.3299 17.2122 18.3299 15.8334V4.16671C18.3299 2.78784 17.2121 1.67004 15.8333 1.67004H4.16659ZM9.32992 3.33004C8.77764 3.33004 8.32992 3.77776 8.32992 4.33004V15.67C8.32992 16.2223 8.77764 16.67 9.32992 16.67H15.8333C16.2953 16.67 16.6699 16.2955 16.6699 15.8334V4.16671C16.6699 3.70463 16.2953 3.33004 15.8333 3.33004H9.32992Z" clip-rule="evenodd"/></svg>