<svg xmlns="http://www.w3.org/2000/svg" width="20" height="20" fill="none" viewBox="0 0 20 20"><path fill="#342E2D" d="M10 3.33325C5.93417 3.33325 2.5 6.76742 2.5 10.8333C2.5 14.8991 5.93417 18.3333 10 18.3333C14.0658 18.3333 17.5 14.8991 17.5 10.8333C17.5 6.76742 14.0658 3.33325 10 3.33325ZM10 16.6666C6.83833 16.6666 4.16667 13.9949 4.16667 10.8333C4.16667 7.67159 6.83833 4.99992 10 4.99992C13.1617 4.99992 15.8333 7.67159 15.8333 10.8333C15.8333 13.9949 13.1617 16.6666 10 16.6666Z"/><path fill="#342E2D" d="M17.4981 4.99954C17.1731 5.32564 16.6454 5.32654 16.3193 5.00156L14.9917 3.67835C14.6656 3.35341 14.6647 2.82571 14.9896 2.49966C15.3146 2.17356 15.8424 2.17265 16.1685 2.49763L17.4961 3.82085C17.8221 4.14578 17.823 4.67348 17.4981 4.99954Z"/><path fill="#342E2D" d="M4.9906 2.50027C5.31694 2.82546 5.3178 3.35365 4.99252 3.67991L3.67825 4.99813C3.35324 5.32413 2.82554 5.32508 2.49935 5.00027C2.17291 4.67521 2.17191 4.14703 2.49712 3.82074L3.81117 2.50229C4.13631 2.17606 4.66434 2.17516 4.9906 2.50027Z"/><path fill="#342E2D" d="M12.3601 8.79583C12.4439 8.67033 12.4919 8.52445 12.4993 8.37376C12.5066 8.22307 12.4729 8.07322 12.4017 7.9402C12.3305 7.80717 12.2246 7.69596 12.0951 7.61844C11.9657 7.54091 11.8177 7.49998 11.6668 7.5H8.33346C7.87322 7.5 7.50012 7.8731 7.50012 8.33333C7.50012 8.79357 7.87322 9.16667 8.33346 9.16667H9.17575C9.57512 9.16667 9.81331 9.61179 9.59175 9.94406L7.64012 12.8708C7.55639 12.9963 7.5083 13.1422 7.50098 13.2929C7.49366 13.4436 7.52739 13.5934 7.59856 13.7265C7.66974 13.8595 7.77569 13.9707 7.90512 14.0482C8.03454 14.1258 8.18259 14.1667 8.33346 14.1667H11.6668C12.127 14.1667 12.5001 13.7936 12.5001 13.3333C12.5001 12.8731 12.127 12.5 11.6668 12.5H10.8245C10.4251 12.5 10.1869 12.0549 10.4085 11.7226L12.3601 8.79583Z"/></svg>