<svg xmlns="http://www.w3.org/2000/svg" width="20" height="20" fill="none" viewBox="0 0 20 20"><path fill="#fff" d="M7.92285 7.95717H3.39746L6.52602 11.6442L5.46459 16.672L9.76618 13.9905L14.0119 16.672L12.8946 11.6442L16.2465 7.95717L11.7773 7.51023L9.76618 4.04663L7.92285 7.95717Z"/><path fill="#3778FF" d="M5.42986 11.9359L4.18819 17.3126C4.14974 17.4754 4.16129 17.646 4.22131 17.8022C4.28134 17.9583 4.38706 18.0927 4.52467 18.1878C4.66227 18.283 4.82537 18.3344 4.99265 18.3354C5.15994 18.3364 5.32363 18.2869 5.46236 18.1934L9.99986 15.1684L14.5374 18.1934C14.6793 18.2877 14.8467 18.3362 15.0171 18.3324C15.1874 18.3287 15.3525 18.2729 15.4902 18.1725C15.6279 18.0721 15.7315 17.932 15.7872 17.771C15.8428 17.6099 15.8478 17.4357 15.8015 17.2718L14.2774 11.9384L18.0574 8.53675C18.1784 8.42774 18.2649 8.28564 18.306 8.12801C18.3472 7.97038 18.3413 7.80415 18.2889 7.64987C18.2366 7.49559 18.1402 7.36002 18.0117 7.25994C17.8831 7.15985 17.7281 7.09964 17.5657 7.08675L12.8149 6.70842L10.759 2.15758C10.6935 2.01105 10.5869 1.88661 10.4522 1.7993C10.3175 1.71199 10.1604 1.66553 9.99986 1.66553C9.83933 1.66553 9.68223 1.71199 9.54752 1.7993C9.41281 1.88661 9.30624 2.01105 9.24069 2.15758L7.18486 6.70842L2.43403 7.08592C2.27441 7.09856 2.12181 7.15693 1.99449 7.25403C1.86717 7.35113 1.77052 7.48285 1.7161 7.63344C1.66169 7.78403 1.65181 7.94711 1.68765 8.10317C1.72349 8.25923 1.80353 8.40166 1.91819 8.51342L5.42986 11.9359ZM7.80736 8.33092C7.9561 8.3192 8.09896 8.26768 8.22094 8.18176C8.34293 8.09584 8.43956 7.97869 8.50069 7.84258L9.99986 4.52508L11.499 7.84258C11.5602 7.97869 11.6568 8.09584 11.7788 8.18176C11.9008 8.26768 12.0436 8.3192 12.1924 8.33092L15.5024 8.59342L12.7765 11.0468C12.5399 11.2601 12.4457 11.5884 12.5324 11.8951L13.5765 15.5493L10.4632 13.4734C10.3265 13.3817 10.1657 13.3327 10.0011 13.3327C9.83653 13.3327 9.67568 13.3817 9.53902 13.4734L6.28569 15.6426L7.16069 11.8543C7.19277 11.7149 7.18847 11.5697 7.14819 11.4325C7.10791 11.2953 7.03301 11.1708 6.93069 11.0709L4.39903 8.60258L7.80736 8.33092Z"/></svg>