<svg width="20" height="20" viewBox="0 0 20 20" fill="none" xmlns="http://www.w3.org/2000/svg">
<path d="M7.92285 7.95729H3.39746L6.52602 11.6443L5.46459 16.6722L9.76618 13.9907L14.0119 16.6722L12.8946 11.6443L16.2465 7.95729L11.7773 7.51035L9.76618 4.04675L7.92285 7.95729Z" fill="white"/>
<path d="M5.42986 11.9358L4.18819 17.3125C4.14974 17.4753 4.16129 17.6459 4.22131 17.802C4.28134 17.9582 4.38706 18.0926 4.52467 18.1877C4.66227 18.2829 4.82537 18.3343 4.99265 18.3353C5.15994 18.3363 5.32363 18.2868 5.46236 18.1933L9.99986 15.1683L14.5374 18.1933C14.6793 18.2875 14.8467 18.3361 15.0171 18.3323C15.1874 18.3286 15.3525 18.2728 15.4902 18.1724C15.6279 18.072 15.7315 17.9319 15.7872 17.7709C15.8428 17.6098 15.8478 17.4356 15.8015 17.2716L14.2774 11.9383L18.0574 8.53663C18.1784 8.42762 18.2649 8.28551 18.306 8.12789C18.3472 7.97026 18.3413 7.80403 18.2889 7.64975C18.2366 7.49546 18.1402 7.3599 18.0117 7.25982C17.8831 7.15973 17.7281 7.09952 17.5657 7.08663L12.8149 6.7083L10.759 2.15746C10.6935 2.01092 10.5869 1.88649 10.4522 1.79918C10.3175 1.71187 10.1604 1.66541 9.99986 1.66541C9.83933 1.66541 9.68223 1.71187 9.54752 1.79918C9.41281 1.88649 9.30624 2.01092 9.24069 2.15746L7.18486 6.7083L2.43403 7.0858C2.27441 7.09844 2.12181 7.1568 1.99449 7.2539C1.86717 7.351 1.77052 7.48273 1.7161 7.63332C1.66169 7.78391 1.65181 7.94699 1.68765 8.10305C1.72349 8.25911 1.80353 8.40153 1.91819 8.51329L5.42986 11.9358V11.9358ZM7.80736 8.3308C7.9561 8.31908 8.09896 8.26756 8.22094 8.18164C8.34293 8.09572 8.43956 7.97857 8.50069 7.84246L9.99986 4.52496L11.499 7.84246C11.5602 7.97857 11.6568 8.09572 11.7788 8.18164C11.9008 8.26756 12.0436 8.31908 12.1924 8.3308L15.5024 8.5933L12.7765 11.0466C12.5399 11.26 12.4457 11.5883 12.5324 11.895L13.5765 15.5491L10.4632 13.4733C10.3265 13.3816 10.1657 13.3326 10.0011 13.3326C9.83653 13.3326 9.67568 13.3816 9.53902 13.4733L6.28569 15.6425L7.16069 11.8541C7.19277 11.7148 7.18847 11.5696 7.14819 11.4324C7.10791 11.2952 7.03301 11.1707 6.93069 11.0708L4.39903 8.60246L7.80736 8.3308V8.3308Z" fill="#342E2D"/>
</svg>
