<svg xmlns="http://www.w3.org/2000/svg" width="20" height="20" fill="none" viewBox="0 0 20 20"><path fill="#342E2D" d="M17.4998 5.95829C17.2466 5.84429 16.9655 5.80721 16.6914 5.85166C16.4173 5.8961 16.1624 6.02012 15.9582 6.20829L14.1665 7.87496V6.66663C14.1665 6.00358 13.9031 5.3677 13.4343 4.89886C12.9654 4.43002 12.3295 4.16663 11.6665 4.16663H4.1665C3.50346 4.16663 2.86758 4.43002 2.39874 4.89886C1.9299 5.3677 1.6665 6.00358 1.6665 6.66663V13.3333C1.6665 13.9963 1.9299 14.6322 2.39874 15.1011C2.86758 15.5699 3.50346 15.8333 4.1665 15.8333H11.6665C12.3295 15.8333 12.9654 15.5699 13.4343 15.1011C13.9031 14.6322 14.1665 13.9963 14.1665 13.3333V12.125L15.9665 13.7916C16.2315 14.0315 16.5757 14.165 16.9332 14.1666C17.1315 14.1662 17.3275 14.1236 17.5082 14.0416C17.754 13.9422 17.9645 13.7718 18.113 13.5521C18.2614 13.3324 18.341 13.0734 18.3415 12.8083V7.19163C18.3403 6.92553 18.2595 6.66589 18.1095 6.44609C17.9595 6.2263 17.7472 6.05641 17.4998 5.95829V5.95829ZM12.4998 13.3333C12.4998 13.5543 12.412 13.7663 12.2558 13.9226C12.0995 14.0788 11.8875 14.1666 11.6665 14.1666H4.1665C3.94549 14.1666 3.73353 14.0788 3.57725 13.9226C3.42097 13.7663 3.33317 13.5543 3.33317 13.3333V6.66663C3.33317 6.44561 3.42097 6.23365 3.57725 6.07737C3.73353 5.92109 3.94549 5.83329 4.1665 5.83329H11.6665C11.8875 5.83329 12.0995 5.92109 12.2558 6.07737C12.412 6.23365 12.4998 6.44561 12.4998 6.66663V13.3333ZM16.6665 12.1666L14.3248 9.99996L16.6665 7.83329V12.1666Z"/></svg>