<svg width="20" height="20" viewBox="0 0 20 20" fill="none" xmlns="http://www.w3.org/2000/svg">
<path d="M9 10.625C9.55228 10.625 10 11.0727 10 11.625V14.625C10 15.1773 9.55228 15.625 9 15.625H4.75C4.19772 15.625 3.75 15.1773 3.75 14.625V11.625C3.75 11.0727 4.19772 10.625 4.75 10.625H9ZM10 9.375H3.75C3.41848 9.375 3.10054 9.5067 2.86612 9.74112C2.6317 9.97554 2.5 10.2935 2.5 10.625V15.625C2.5 15.9565 2.6317 16.2745 2.86612 16.5089C3.10054 16.7433 3.41848 16.875 3.75 16.875H10C10.3315 16.875 10.6495 16.7433 10.8839 16.5089C11.1183 16.2745 11.25 15.9565 11.25 15.625V10.625C11.25 10.2935 11.1183 9.97554 10.8839 9.74112C10.6495 9.5067 10.3315 9.375 10 9.375Z" fill="#342E2D" stroke="#342E2D" stroke-width="0.3"/>
<path d="M15.875 3.75C16.4273 3.75 16.875 4.19772 16.875 4.75V5.875C16.875 6.42728 16.4273 6.875 15.875 6.875H11.625C11.0727 6.875 10.625 6.42728 10.625 5.875V4.75C10.625 4.19772 11.0727 3.75 11.625 3.75H15.875ZM16.875 2.5H10.625C10.2935 2.5 9.97554 2.6317 9.74112 2.86612C9.5067 3.10054 9.375 3.41848 9.375 3.75V6.875C9.375 7.20652 9.5067 7.52446 9.74112 7.75888C9.97554 7.9933 10.2935 8.125 10.625 8.125H16.875C17.2065 8.125 17.5245 7.9933 17.7589 7.75888C17.9933 7.52446 18.125 7.20652 18.125 6.875V3.75C18.125 3.41848 17.9933 3.10054 17.7589 2.86612C17.5245 2.6317 17.2065 2.5 16.875 2.5Z" fill="#342E2D" stroke="#342E2D" stroke-width="0.3"/>
<path d="M15.875 10.625C16.4273 10.625 16.875 11.0727 16.875 11.625V12.75C16.875 13.3023 16.4273 13.75 15.875 13.75H14.75C14.1977 13.75 13.75 13.3023 13.75 12.75V11.625C13.75 11.0727 14.1977 10.625 14.75 10.625H15.875ZM16.875 9.375H13.75C13.4185 9.375 13.1005 9.5067 12.8661 9.74112C12.6317 9.97554 12.5 10.2935 12.5 10.625V13.75C12.5 14.0815 12.6317 14.3995 12.8661 14.6339C13.1005 14.8683 13.4185 15 13.75 15H16.875C17.2065 15 17.5245 14.8683 17.7589 14.6339C17.9933 14.3995 18.125 14.0815 18.125 13.75V10.625C18.125 10.2935 17.9933 9.97554 17.7589 9.74112C17.5245 9.5067 17.2065 9.375 16.875 9.375Z" fill="#342E2D" stroke="#342E2D" stroke-width="0.3"/>
<path d="M5.875 3.75C6.42728 3.75 6.875 4.19772 6.875 4.75V5.875C6.875 6.42728 6.42728 6.875 5.875 6.875H4.75C4.19772 6.875 3.75 6.42728 3.75 5.875V4.75C3.75 4.19772 4.19772 3.75 4.75 3.75H5.875ZM6.875 2.5H3.75C3.41848 2.5 3.10054 2.6317 2.86612 2.86612C2.6317 3.10054 2.5 3.41848 2.5 3.75V6.875C2.5 7.20652 2.6317 7.52446 2.86612 7.75888C3.10054 7.9933 3.41848 8.125 3.75 8.125H6.875C7.20652 8.125 7.52446 7.9933 7.75888 7.75888C7.9933 7.52446 8.125 7.20652 8.125 6.875V3.75C8.125 3.41848 7.9933 3.10054 7.75888 2.86612C7.52446 2.6317 7.20652 2.5 6.875 2.5Z" fill="#342E2D" stroke="#342E2D" stroke-width="0.3"/>
</svg>
